<?xml version="1.0" encoding="UTF-8" standalone="no"?>

<svg
   version="1.1"
   id="svg2"
   width="860"
   height="958"
   viewBox="0 0 860 958"
   sodipodi:docname="selectdate.svg"
   inkscape:version="1.2.2 (b0a8486541, 2022-12-01)"
   xmlns:inkscape="http://www.inkscape.org/namespaces/inkscape"
   xmlns:sodipodi="http://sodipodi.sourceforge.net/DTD/sodipodi-0.dtd"
   xmlns="http://www.w3.org/2000/svg"
   xmlns:svg="http://www.w3.org/2000/svg">
  <defs
     id="defs6" />
  <sodipodi:namedview
     id="namedview4"
     pagecolor="#ffffff"
     bordercolor="#000000"
     borderopacity="0.25"
     inkscape:showpageshadow="2"
     inkscape:pageopacity="0.0"
     inkscape:pagecheckerboard="0"
     inkscape:deskcolor="#d1d1d1"
     showgrid="false"
     inkscape:zoom="0.54841371"
     inkscape:cx="255.28173"
     inkscape:cy="428.50861"
     inkscape:window-width="1920"
     inkscape:window-height="1007"
     inkscape:window-x="0"
     inkscape:window-y="0"
     inkscape:window-maximized="1"
     inkscape:current-layer="g8" />
  <g
     inkscape:groupmode="layer"
     inkscape:label="Image"
     id="g8">
    <path
       style="fill:#000000"
       d="m 786.67416,670.4851 c 10.22701,-5.34375 19.60297,-14.56146 23.5247,-23.12764 2.31848,-5.06423 2.50939,-6.8542 3.31305,-31.06251 0.46904,-14.12874 0.8734,-134.06714 0.89859,-266.52977 l 0.0458,-240.84116 -4.68616,-9.073264 C 804.50117,89.649046 797.2739,81.648715 790.25941,78.253058 783.97021,75.208509 774.01657,74.172743 750.7063,74.137202 l -20.25,-0.03088 v -8.316341 c 0,-25.261483 -8.94981,-37.921116 -26.81512,-37.930383 -4.99606,-0.0026 -7.48368,0.597238 -11.90965,2.871724 -10.51377,5.402973 -14.27523,14.416354 -14.27523,34.206913 v 9.168087 h -148.5 -148.5 l -0.0148,-8.25 c -0.0273,-15.209575 -3.72046,-25.706273 -11.43336,-32.495438 -8.05285,-7.0884 -17.78089,-7.976072 -27.7784,-2.534747 -9.72304,5.291945 -12.6963,11.996703 -13.50134,30.445815 l -0.55267,12.665629 -26.13405,0.334371 -26.13404,0.33437 -6.64737,3.274113 c -8.3333,4.104501 -15.42862,11.664061 -20.41232,21.747891 l -3.67276,7.431344 -0.80589,19.77332 c -0.44324,10.87533 -0.82999,60.20961 -0.85945,109.63174 l -0.0536,89.85841 2.75,-0.76076 c 1.5125,-0.41842 11.975,-1.02971 23.25,-1.35841 l 20.50005,-0.59765 0.26085,-42.25 0.26086,-42.25 h 193.82498 c 106.60374,0 214.14885,0.29836 238.98914,0.66303 l 45.16417,0.66302 v 193.67344 193.67343 l -52.66453,0.66354 c -28.96549,0.36495 -72.80467,0.66354 -97.4204,0.66354 h -44.75588 l -0.56145,6.25 c -1.52312,16.95531 -2.62919,37.05188 -2.07003,37.61104 1.26497,1.26497 43.93478,1.95181 124.97229,2.01165 l 83,0.0613 8.71787,-4.5552 z M 689.41394,209.28978 c -10.91285,-4.27619 -22.67043,-16.02309 -27.20816,-27.18345 -1.76958,-4.35222 -2.23764,-7.48253 -2.24288,-15 -0.006,-8.56826 0.29758,-10.13751 3.09494,-16 2.81133,-5.8918 11.88099,-18 13.48291,-18 0.35936,0 0.85994,4.6125 1.1124,10.25 0.37919,8.46726 0.94962,11.34172 3.27973,16.52692 4.71942,10.50216 11.7885,15.22308 22.79495,15.22308 7.43809,0 14.3596,-2.96074 19.62753,-8.39587 3.80101,-3.92165 5.68552,-10.40438 6.71628,-23.10413 0.35712,-4.4 0.97391,-8.6139 1.37065,-9.36421 0.95956,-1.81475 9.16642,8.81897 12.81474,16.60419 2.42207,5.16852 2.69926,6.89495 2.69926,16.81188 0,10.75681 -0.10018,11.25457 -3.75256,18.64466 -3.89938,7.88986 -12.39761,17.01545 -19.06373,20.47107 -11.39359,5.90627 -23.78302,6.80387 -34.72606,2.51586 z m -345.4161,1.28536 c -17.43095,-4.54019 -30.16419,-17.89651 -33.57119,-35.21394 -2.62371,-13.33606 1.57603,-26.68501 12.03545,-38.25487 l 4.97213,-5.5 0.011,8.20078 c 0.0185,13.73765 2.72503,22.70858 8.6605,28.70545 9.46752,9.56545 28.40697,8.62769 37.02996,-1.83349 4.0755,-4.94429 5.34457,-9.62662 7.87968,-29.07274 l 0.65183,-5 3.93165,4.5 c 15.88375,18.17989 15.57552,43.30917 -0.74749,60.93996 -10.86179,11.73203 -26.04079,16.38708 -40.85355,12.52885 z m 394.17759,386.82073 c 0.81235,-2.11696 -0.26777,-57.17112 -1.1388,-58.04478 -1.00001,-1.00303 -39.98601,-1.57108 -50.33034,-0.73335 l -8.25,0.66813 v 28.94161 c 0,22.27588 0.2879,29.03263 1.25,29.33677 0.6875,0.21733 14.00022,0.59171 29.58383,0.83195 23.99643,0.36994 28.41825,0.2168 28.88531,-1.00033 z m -89.71914,-27.20345 c 0,-25.78697 -0.18344,-29.12667 -1.68216,-30.62539 -1.51416,-1.51416 -4.45327,-1.64486 -29.42943,-1.30867 -15.261,0.20542 -27.96237,0.59275 -28.22527,0.86073 -0.2629,0.26798 -0.61852,13.76224 -0.79026,29.98724 l -0.31227,29.5 30.2197,0.26466 30.21969,0.26467 z m 90,-91.74455 v -30.65846 l -19.66081,0.65846 c -10.81344,0.36215 -24.31344,0.65846 -30,0.65846 h -10.33919 v 29.34296 29.34296 l 16.65971,0.65704 c 9.16284,0.36137 22.66284,0.65704 30,0.65704 h 13.34029 z m -90,2.24025 c 0,-15.63002 -0.27314,-29.13002 -0.60699,-30 -0.53413,-1.39194 -4.07861,-1.58179 -29.53138,-1.58179 -22.25022,0 -29.02072,0.28843 -29.34184,1.25 -0.22959,0.6875 -0.55296,14.18759 -0.71861,30.00019 l -0.30118,28.75019 30.25,-1.9e-4 30.25,-1.9e-4 z m -92.54354,27.0737 c 1.58096,-1.15602 1.97046,-3.64438 2.77843,-17.75 1.13853,-19.87671 0.48516,-38.84244 -1.37779,-39.9938 -2.20193,-1.36088 -12.77132,-2.04558 -26.57772,-1.72177 l -13.22061,0.31008 9.58227,16 c 5.27025,8.8 12.45401,21.85 15.96391,29 5.65538,11.52053 8.3242,15.5 10.39505,15.5 0.33976,0 1.44517,-0.60503 2.45646,-1.34451 z m 182.30779,-118.40394 -0.26425,-30.46283 -23.5,0.12967 c -12.925,0.0713 -26.3125,0.40601 -29.75,0.74374 l -6.25,0.61406 v 28.89329 c 0,22.23685 0.28798,28.98448 1.25,29.28913 0.6875,0.21771 14.19391,0.58933 30.01425,0.82581 l 28.76424,0.42996 z m -204.26425,29.77579 24,-0.52734 0.84639,-21.47515 c 0.46551,-11.81133 0.53712,-24.77552 0.15912,-28.8093 -0.61693,-6.58357 -0.94048,-7.43043 -3.16149,-8.27485 -1.36082,-0.51739 -14.81992,-0.9407 -29.90912,-0.9407 h -27.4349 v 30.5 30.5 l 5.75,-0.22266 c 3.1625,-0.12246 16.55,-0.45996 29.75,-0.75 z m 113.36161,-1.77734 c 0.51259,-0.9625 1.09092,-14.46257 1.28519,-30.00016 l 0.3532,-28.25015 -30.5,-4e-5 -30.5,-3e-5 0.30118,28.75019 c 0.16565,15.8126 0.48902,29.31269 0.71861,30.00019 0.32093,0.96099 7.00598,1.25 28.91364,1.25 26.11753,0 28.574,-0.14608 29.42818,-1.75 z M 467.45629,377.13186 v -18.02553 h -25 c -13.75,0 -25,0.20211 -25,0.44914 0,0.24703 6.4125,4.66403 14.25,9.81556 7.8375,5.15154 19.0875,13.06091 25,17.57639 l 10.75,8.20996 z m 181,-78.52553 v -29.5 h -30 -30 v 29.5 29.5 h 30 30 z m -89,0 v -29.5 h -30.5 -30.5 v 29.5 29.5 h 30.5 30.5 z m -92,0 v -29.5 h -29 -29 v 29.5 29.5 h 29 29 z m -89,0 v -29.5 h -29.5 -29.5 v 29.5 29.5 h 29.5 29.5 z"
       id="path170"
       sodipodi:nodetypes="sssscssscsssscccsssscccsscsscsscccsscccsscsssccsssssssssssssssssssscsssscssssssscssssssssscccsccsscccssccssssscccssssscssssccsscsssccscsssscccsssscccssssccsssscccccccccccccccccccccccccccccccccccccc" />
    <path
       style="fill:#000000;stroke-width:0.557038"
       d="m 667.53619,924.75986 c -6.36631,-1.64497 3.87583,7.57041 -132.35027,-119.08228 -54.21789,-50.40767 -98.80641,-91.72168 -99.08561,-91.80889 -0.27922,-0.0873 -3.07045,1.3821 -6.20273,3.26513 -24.18054,14.53656 -48.41862,23.30025 -77.86566,28.1535 -9.05238,1.49194 -9.64989,1.52119 -31.16688,1.52377 -24.26062,0.006 -26.84139,-0.21923 -44.34223,-3.8178 -43.77134,-9.00039 -84.00944,-32.5084 -112.51361,-65.73302 -35.47462,-41.34944 -50.26372,-94.59183 -40.82034,-146.95797 12.5864,-69.79509 68.43474,-128.0747 141.4523,-147.61019 22.02642,-5.89306 38.9117,-7.7544 63.44019,-6.99331 28.83982,0.89488 53.70056,6.61148 79.37931,18.25293 34.57104,15.67274 64.38968,40.86089 83.68286,70.68783 15.30055,23.65437 23.98242,46.95976 27.82979,74.70537 1.44615,10.42926 1.44337,35.21306 -0.006,44.87991 -5.47599,36.54672 -20.28263,68.38449 -44.53434,95.75933 -2.70218,3.05017 -4.91303,5.88887 -4.91303,6.30827 0,0.41936 35.91874,34.28327 79.81942,75.25308 123.59809,115.34661 141.55797,132.28402 142.93287,134.79601 0.67951,1.24142 1.54314,3.92781 1.91919,5.96977 2.53969,13.78792 -12.18434,26.18779 -26.65602,22.44856 z M 332.15141,707.27149 c 38.13795,-2.82272 72.15564,-17.3498 99.10703,-42.32311 24.69276,-22.88048 40.49422,-52.75488 45.25566,-85.56089 0.97606,-6.72499 0.97297,-29.90062 -0.004,-36.28018 -4.20359,-27.42446 -15.50459,-52.20078 -33.2191,-72.82907 -5.81246,-6.76853 -17.12609,-17.36263 -24.28363,-22.73922 -21.9496,-16.48808 -50.47779,-27.84503 -78.55267,-31.27147 -9.12374,-1.11352 -31.48655,-1.09765 -40.2078,0.0285 -36.34475,4.69327 -67.72938,19.4231 -92.83481,43.57037 -24.67814,23.73631 -39.3355,52.9902 -43.59208,87.00325 -0.59897,4.78601 -0.38888,24.99383 0.32404,31.1703 1.34453,11.64856 5.25579,26.16839 10.02554,37.218 8.39631,19.4509 20.52663,36.23719 36.82913,50.96531 32.63332,29.48184 76.52118,44.35155 121.15331,41.04817 z"
       id="path271" />
    <text
       xml:space="preserve"
       style="font-size:42.6667px;fill:#000000"
       x="190.18169"
       y="576.99194"
       id="text354"><tspan
         sodipodi:role="line"
         id="tspan352"
         x="190.18169"
         y="576.99194"
         style="font-style:normal;font-variant:normal;font-weight:bold;font-stretch:normal;font-size:42.6667px;font-family:sans-serif;-inkscape-font-specification:'sans-serif Bold'">yyyy-mm-dd</tspan></text>
  </g>
</svg>
